<?xml version="1.0" encoding="UTF-8" standalone="no"?>
<svg
   xmlns:dc="http://purl.org/dc/elements/1.1/"
   xmlns:cc="http://creativecommons.org/ns#"
   xmlns:rdf="http://www.w3.org/1999/02/22-rdf-syntax-ns#"
   xmlns:svg="http://www.w3.org/2000/svg"
   xmlns="http://www.w3.org/2000/svg"
   xmlns:sodipodi="http://sodipodi.sourceforge.net/DTD/sodipodi-0.dtd"
   xmlns:inkscape="http://www.inkscape.org/namespaces/inkscape"
   width="47.546345mm"
   height="47.546345mm"
   viewBox="0 0 47.546345 47.546345"
   version="1.1"
   id="svg47"
   inkscape:version="1.0.2 (e86c870879, 2021-01-15)"
   sodipodi:docname="tektrans-circle-maroon.svg">
  <defs
     id="defs41" />
  <sodipodi:namedview
     id="base"
     pagecolor="#ffffff"
     bordercolor="#666666"
     borderopacity="1.0"
     inkscape:pageopacity="0.0"
     inkscape:pageshadow="2"
     inkscape:zoom="1"
     inkscape:cx="209.65045"
     inkscape:cy="176.16832"
     inkscape:document-units="mm"
     inkscape:current-layer="layer1"
     inkscape:document-rotation="0"
     showgrid="false"
     fit-margin-top="0"
     fit-margin-left="0"
     fit-margin-right="0"
     fit-margin-bottom="0"
     inkscape:window-width="1530"
     inkscape:window-height="991"
     inkscape:window-x="26"
     inkscape:window-y="23"
     inkscape:window-maximized="0" />
  <metadata
     id="metadata44">
    <rdf:RDF>
      <cc:Work
         rdf:about="">
        <dc:format>image/svg+xml</dc:format>
        <dc:type
           rdf:resource="http://purl.org/dc/dcmitype/StillImage" />
        <dc:title></dc:title>
      </cc:Work>
    </rdf:RDF>
  </metadata>
  <g
     inkscape:label="Layer 1"
     inkscape:groupmode="layer"
     id="layer1"
     transform="translate(-50.363318,-101.55546)">
    <circle
       r="23.55327"
       cy="125.32864"
       cx="74.13649"
       id="path878"
       style="fill:#800000;stroke:#ffffff;stroke-width:0.439803;stroke-miterlimit:4;stroke-dasharray:none" />
    <g
       aria-label="tektrans"
       id="text4620-7-4-2-2-3"
       style="font-style:normal;font-variant:normal;font-weight:normal;font-stretch:normal;font-size:10.5833px;line-height:6.61458px;font-family:Comfortaa;-inkscape-font-specification:Comfortaa;letter-spacing:0px;word-spacing:0px;fill:#ffffff;fill-opacity:1;stroke:#ffffff;stroke-width:0.4;stroke-miterlimit:4;stroke-dasharray:none">
      <path
         d="m 55.832105,128.64785 h -0.285749 c -0.656165,0 -1.132413,-0.50799 -1.132413,-1.22766 v -2.82574 h 1.195913 c 0.222249,0 0.370415,-0.14817 0.370415,-0.34925 0,-0.21166 -0.148166,-0.35983 -0.370415,-0.35983 h -1.195913 v -1.64041 c 0,-0.24342 -0.169333,-0.41275 -0.412749,-0.41275 -0.232832,0 -0.402165,0.16933 -0.402165,0.41275 v 1.64041 h -0.687915 c -0.222249,0 -0.370415,0.14817 -0.370415,0.35983 0,0.20108 0.148166,0.34925 0.370415,0.34925 h 0.687915 v 2.82574 c 0,1.17475 0.814914,2.032 1.947327,2.04258 h 0.222249 c 0.253999,0 0.444499,-0.16933 0.444499,-0.40217 0,-0.24341 -0.15875,-0.41275 -0.380999,-0.41275 z"
         style="font-style:normal;font-variant:normal;font-weight:normal;font-stretch:normal;font-family:Comfortaa;-inkscape-font-specification:Comfortaa;fill:#ffffff;stroke:#ffffff;stroke-width:0.4;stroke-miterlimit:4;stroke-dasharray:none"
         id="path50" />
      <path
         d="m 60.00191,123.62079 c -1.629829,0 -2.772825,1.22766 -2.772825,2.95274 0,1.72508 1.217079,2.94216 2.931574,2.94216 0.656165,0 1.460495,-0.28575 1.926161,-0.68792 0.169332,-0.14817 0.158749,-0.37041 -0.02117,-0.52916 -0.148166,-0.11642 -0.359832,-0.10584 -0.518582,0.0212 -0.306915,0.26458 -0.878414,0.46567 -1.386412,0.46567 -1.18533,0 -2.042577,-0.79375 -2.158993,-1.94733 h 4.275653 c 0.222249,0 0.380999,-0.14817 0.380999,-0.37042 0,-1.66157 -1.05833,-2.8469 -2.656408,-2.8469 z m 0,0.73024 c 1.068913,0 1.788577,0.74084 1.89441,1.80975 h -3.873488 c 0.148167,-1.06891 0.899581,-1.80975 1.979078,-1.80975 z"
         style="font-style:normal;font-variant:normal;font-weight:normal;font-stretch:normal;font-family:Comfortaa;-inkscape-font-specification:Comfortaa;fill:#ffffff;stroke:#ffffff;stroke-width:0.4;stroke-miterlimit:4;stroke-dasharray:none"
         id="path52" />
      <path
         d="m 68.405032,128.88069 -2.201326,-2.70933 2.11666,-1.91557 c 0.169333,-0.14817 0.179916,-0.34925 0.02117,-0.51859 -0.148167,-0.16933 -0.349249,-0.16933 -0.518582,-0.0212 l -2.984491,2.69874 v -4.8154 c 0,-0.24342 -0.169332,-0.40217 -0.402165,-0.40217 -0.243416,0 -0.402165,0.15875 -0.402165,0.40217 v 7.46122 c 0,0.24342 0.158749,0.40217 0.402165,0.40217 0.232833,0 0.402165,-0.15875 0.402165,-0.40217 v -1.66157 l 0.793748,-0.71967 2.18016,2.67758 c 0.137582,0.17991 0.359832,0.20108 0.539748,0.0529 0.179916,-0.14816 0.190499,-0.35983 0.05292,-0.52916 z"
         style="font-style:normal;font-variant:normal;font-weight:normal;font-stretch:normal;font-family:Comfortaa;-inkscape-font-specification:Comfortaa;fill:#ffffff;stroke:#ffffff;stroke-width:0.4;stroke-miterlimit:4;stroke-dasharray:none"
         id="path54" />
      <path
         d="m 72.638338,128.64785 h -0.28575 c -0.656164,0 -1.132413,-0.50799 -1.132413,-1.22766 v -2.82574 h 1.195913 c 0.22225,0 0.370416,-0.14817 0.370416,-0.34925 0,-0.21166 -0.148166,-0.35983 -0.370416,-0.35983 h -1.195913 v -1.64041 c 0,-0.24342 -0.169332,-0.41275 -0.412748,-0.41275 -0.232833,0 -0.402166,0.16933 -0.402166,0.41275 v 1.64041 h -0.687914 c -0.222249,0 -0.370416,0.14817 -0.370416,0.35983 0,0.20108 0.148167,0.34925 0.370416,0.34925 h 0.687914 v 2.82574 c 0,1.17475 0.814914,2.032 1.947327,2.04258 h 0.22225 c 0.253999,0 0.444498,-0.16933 0.444498,-0.40217 0,-0.24341 -0.158749,-0.41275 -0.380998,-0.41275 z"
         style="font-style:normal;font-variant:normal;font-weight:normal;font-stretch:normal;font-family:Comfortaa;-inkscape-font-specification:Comfortaa;fill:#ffffff;stroke:#ffffff;stroke-width:0.4;stroke-miterlimit:4;stroke-dasharray:none"
         id="path56" />
      <path
         d="m 76.956308,123.6102 c -0.740831,0 -1.396995,0.34925 -1.809744,0.93133 v -0.46566 c 0,-0.254 -0.148166,-0.40217 -0.402165,-0.40217 -0.254,0 -0.402166,0.14817 -0.402166,0.40217 v 4.98473 c 0,0.254 0.148166,0.40217 0.402166,0.40217 0.253999,0 0.402165,-0.14817 0.402165,-0.40217 v -3.1644 c 0,-0.98425 0.86783,-1.61925 2.05316,-1.51342 0.349249,0.0212 0.634998,0.0847 0.709081,-0.23283 0.08467,-0.34925 -0.296332,-0.53975 -0.952497,-0.53975 z"
         style="font-style:normal;font-variant:normal;font-weight:normal;font-stretch:normal;font-family:Comfortaa;-inkscape-font-specification:Comfortaa;fill:#ffffff;stroke:#ffffff;stroke-width:0.4;stroke-miterlimit:4;stroke-dasharray:none"
         id="path58" />
      <path
         d="m 81.401267,123.62079 c -1.682745,0 -2.942158,1.26999 -2.942158,2.95274 0,1.68274 1.227663,2.94216 2.857491,2.94216 0.931331,0 1.714495,-0.42334 2.201327,-1.09008 v 0.63499 c 0,0.23284 0.169332,0.40217 0.412748,0.40217 0.232833,0 0.412749,-0.16933 0.412749,-0.40217 v -2.48707 c -0.01058,-1.68275 -1.269996,-2.95274 -2.942157,-2.95274 z m 0,5.15406 c -1.21708,0 -2.14841,-0.94191 -2.14841,-2.20132 0,-1.25941 0.93133,-2.21191 2.14841,-2.21191 1.217079,0 2.137826,0.9525 2.137826,2.21191 0,1.25941 -0.920747,2.20132 -2.137826,2.20132 z"
         style="font-style:normal;font-variant:normal;font-weight:normal;font-stretch:normal;font-family:Comfortaa;-inkscape-font-specification:Comfortaa;fill:#ffffff;stroke:#ffffff;stroke-width:0.4;stroke-miterlimit:4;stroke-dasharray:none"
         id="path60" />
      <path
         d="m 88.671973,123.6102 c -0.783164,0 -1.471079,0.3175 -1.926161,0.83608 v -0.35983 c 0,-0.24341 -0.158749,-0.41275 -0.402165,-0.41275 -0.243416,0 -0.412749,0.16934 -0.412749,0.41275 v 4.97415 c 0,0.24342 0.169333,0.40217 0.412749,0.40217 0.243416,0 0.402165,-0.15875 0.402165,-0.40217 v -3.13265 c 0,-0.87842 0.793748,-1.54517 1.841494,-1.54517 1.079497,0 1.894411,0.62442 1.894411,1.92617 v 2.75165 c 0,0.23284 0.179916,0.40217 0.412749,0.40217 0.222249,0 0.402165,-0.16933 0.402165,-0.40217 v -2.75165 c 0,-1.74625 -1.132413,-2.69875 -2.624658,-2.69875 z"
         style="font-style:normal;font-variant:normal;font-weight:normal;font-stretch:normal;font-family:Comfortaa;-inkscape-font-specification:Comfortaa;fill:#ffffff;stroke:#ffffff;stroke-width:0.4;stroke-miterlimit:4;stroke-dasharray:none"
         id="path62" />
      <path
         d="m 95.117183,129.51569 c 1.322913,0 2.27541,-0.68792 2.27541,-1.67217 0,-0.78316 -0.518582,-1.41816 -2.106077,-1.68274 -1.153579,-0.1905 -1.492245,-0.48683 -1.492245,-0.97366 0,-0.47625 0.497415,-0.83609 1.280579,-0.83609 0.613832,0 1.068913,0.1905 1.418162,0.59267 0.148167,0.15875 0.402166,0.21167 0.571499,0.10583 0.201082,-0.127 0.222249,-0.33866 0.08467,-0.52916 -0.412749,-0.55033 -1.100663,-0.89958 -2.05316,-0.89958 -1.142997,0 -2.095494,0.55033 -2.095494,1.61924 0,0.77258 0.645582,1.36525 2.063744,1.59808 1.100663,0.17992 1.545162,0.51858 1.545162,1.016 -0.01058,0.508 -0.455082,0.92074 -1.492246,0.92074 -0.666747,0 -1.259412,-0.21166 -1.598078,-0.61383 -0.148166,-0.15875 -0.370415,-0.20108 -0.571498,-0.0529 -0.190499,0.14816 -0.222249,0.39158 -0.0635,0.56091 0.507999,0.56092 1.396996,0.84667 2.233076,0.84667 z"
         style="font-style:normal;font-variant:normal;font-weight:normal;font-stretch:normal;font-family:Comfortaa;-inkscape-font-specification:Comfortaa;fill:#ffffff;stroke:#ffffff;stroke-width:0.4;stroke-miterlimit:4;stroke-dasharray:none"
         id="path64" />
    </g>
  </g>
</svg>
